<?xml version="1.0" encoding="UTF-8"?>
<svg id="Capa_1" data-name="Capa 1" xmlns="http://www.w3.org/2000/svg" viewBox="360 830 1230 340">
  <defs>
    <style>
      .cls-1 {
        fill: #fff;
      }
    </style>
  </defs>
  <g>
    <path class="cls-1" d="M618.08,1144.29v-1.23l5.45-.98,21.12-58.88c-1.59.3-2.98.72-4.18,1.25-1.2.53-2.2,1.11-2.99,1.74l-.49-1.64c1.09-.96,2.37-1.76,3.83-2.42,1.46-.66,2.99-1.12,4.57-1.39l2.38-6.93,6.85-.94-2.42,7.3c4.65.57,8.22,2.3,10.72,5.17,2.5,2.87,3.75,6.34,3.75,10.41,0,3.69-.72,7.19-2.17,10.5-1.45,3.31-3.4,6.23-5.86,8.75-2.46,2.53-5.23,4.52-8.32,5.97-3.09,1.45-6.27,2.17-9.55,2.17-.49,0-1.05-.01-1.66-.04-.62-.03-1.24-.07-1.87-.12l-6.6,18.86,6.93.94v1.52h-19.48ZM639.77,1120.84c2.51,0,4.95-.74,7.32-2.21,2.36-1.48,4.48-3.48,6.36-6.01,1.87-2.53,3.36-5.39,4.47-8.59,1.11-3.2,1.66-6.52,1.66-9.96,0-3.66-.67-6.46-2.01-8.39-1.34-1.93-3.03-2.89-5.08-2.89-.44,0-.77.06-1,.16-.23.11-.42.36-.55.74l-12.96,37.11c.44.03.77.04,1,.04h.8Z"/>
    <path class="cls-1" d="M676.47,1124.86c-2.32,0-4.16-.95-5.49-2.85-1.34-1.9-2.01-4.54-2.01-7.93,0-2.93.51-5.97,1.52-9.12,1.01-3.16,2.38-6.21,4.12-9.14,1.74-2.94,3.7-5.58,5.88-7.93,2.19-2.35,4.47-4.22,6.85-5.62,2.38-1.39,4.69-2.09,6.93-2.09,1.26,0,2.31.29,3.16.88.85.59,1.68,1.57,2.5,2.93l1.11-2.99h6.89l-11.65,34.16c-.63,1.8-.89,3.07-.78,3.79.11.72.49,1.09,1.15,1.09.46,0,1.04-.25,1.72-.76.68-.51,1.51-1.29,2.48-2.36.97-1.07,2.1-2.43,3.38-4.1l1.31,1.15c-2.35,3.55-4.62,6.26-6.81,8.12-2.19,1.86-4.22,2.79-6.11,2.79-2.68,0-4.02-1.57-4.02-4.72,0-1.2.15-2.45.45-3.73.3-1.28.92-2.79,1.85-4.51l-.41-.29c-2.65,4.65-5.08,8.02-7.28,10.11-2.2,2.09-4.45,3.14-6.75,3.14ZM677.78,1121.94c1.15,0,2.51-.74,4.1-2.21,1.59-1.48,3.25-3.51,5-6.11,1.75-2.6,3.47-5.59,5.17-8.98,1.69-3.39,3.23-7.01,4.59-10.87.68-1.86,1.1-3.29,1.25-4.29.15-1,.23-1.88.23-2.64,0-1.28-.3-2.28-.9-2.99-.6-.71-1.34-1.07-2.21-1.07-1.37,0-2.92.8-4.65,2.4-1.74,1.6-3.49,3.7-5.27,6.31-1.78,2.61-3.41,5.46-4.9,8.55-1.49,3.09-2.69,6.14-3.61,9.14-.92,3.01-1.37,5.69-1.37,8.04,0,1.64.2,2.84.59,3.59.4.75,1.06,1.13,1.99,1.13Z"/>
    <path class="cls-1" d="M732.73,1124.86c-2.71,0-4.06-1.45-4.06-4.35,0-2.32.83-5.43,2.5-9.31l9.27-21.86c.57-1.34.86-2.64.86-3.9,0-1.64-.72-2.46-2.17-2.46-1.18,0-2.5.63-3.98,1.89-1.48,1.26-3.03,3.03-4.67,5.31-1.64,2.28-3.27,4.96-4.9,8.04-1.63,3.08-3.18,6.43-4.65,10.07l-6.36,15.7h-6.6l13.08-36.21c.25-.71.44-1.28.57-1.7.14-.42.21-.77.21-1.05,0-.82-.33-1.23-.98-1.23-.52,0-1.16.29-1.93.86-.77.57-1.6,1.38-2.5,2.42-.9,1.04-1.82,2.24-2.75,3.61l-1.39-1.27c1.75-2.84,3.79-5.1,6.13-6.77,2.34-1.67,4.6-2.5,6.79-2.5s3.24,1.09,3.24,3.28c0,1.09-.23,2.36-.7,3.79-.47,1.44-1.23,3.37-2.3,5.8l.29.12c2.92-4.59,5.58-7.89,7.96-9.9,2.38-2.01,4.82-3.01,7.34-3.01,4.13,0,6.19,2.35,6.19,7.05,0,2.35-.55,4.84-1.64,7.46l-8.04,19.4c-.38.98-.7,1.91-.96,2.77-.26.86-.39,1.52-.39,1.99,0,.74.29,1.11.86,1.11.79,0,1.88-.64,3.26-1.91,1.38-1.27,2.95-3.07,4.7-5.39l1.44,1.23c-2.41,3.58-4.76,6.29-7.07,8.14-2.31,1.85-4.52,2.77-6.62,2.77Z"/>
    <path class="cls-1" d="M757.45,1124.86c-2.32,0-4.16-.95-5.49-2.85-1.34-1.9-2.01-4.54-2.01-7.93,0-2.93.51-5.97,1.52-9.12,1.01-3.16,2.38-6.21,4.12-9.14,1.74-2.94,3.7-5.58,5.88-7.93,2.19-2.35,4.47-4.22,6.85-5.62,2.38-1.39,4.69-2.09,6.93-2.09,1.26,0,2.31.29,3.16.88.85.59,1.68,1.57,2.5,2.93l1.11-2.99h6.89l-11.65,34.16c-.63,1.8-.89,3.07-.78,3.79.11.72.49,1.09,1.15,1.09.46,0,1.04-.25,1.72-.76.68-.51,1.51-1.29,2.48-2.36.97-1.07,2.1-2.43,3.38-4.1l1.31,1.15c-2.35,3.55-4.62,6.26-6.81,8.12-2.19,1.86-4.22,2.79-6.11,2.79-2.68,0-4.02-1.57-4.02-4.72,0-1.2.15-2.45.45-3.73.3-1.28.92-2.79,1.84-4.51l-.41-.29c-2.65,4.65-5.08,8.02-7.28,10.11-2.2,2.09-4.45,3.14-6.75,3.14ZM758.77,1121.94c1.15,0,2.51-.74,4.1-2.21,1.58-1.48,3.25-3.51,5-6.11,1.75-2.6,3.47-5.59,5.17-8.98,1.69-3.39,3.23-7.01,4.59-10.87.68-1.86,1.1-3.29,1.25-4.29.15-1,.23-1.88.23-2.64,0-1.28-.3-2.28-.9-2.99-.6-.71-1.34-1.07-2.21-1.07-1.37,0-2.92.8-4.65,2.4-1.74,1.6-3.49,3.7-5.27,6.31-1.78,2.61-3.41,5.46-4.9,8.55-1.49,3.09-2.69,6.14-3.61,9.14-.92,3.01-1.37,5.69-1.37,8.04,0,1.64.2,2.84.6,3.59.4.75,1.06,1.13,1.99,1.13Z"/>
    <path class="cls-1" d="M796.98,1124.86c-2.43,0-4.27-.89-5.52-2.67-1.24-1.78-1.87-4.41-1.87-7.91,0-3.03.48-6.14,1.44-9.33.96-3.18,2.25-6.25,3.9-9.21,1.64-2.95,3.51-5.6,5.6-7.93,2.09-2.34,4.3-4.2,6.62-5.58,2.32-1.38,4.62-2.07,6.89-2.07,1.31,0,2.4.29,3.28.88.87.59,1.74,1.57,2.58,2.93l7.87-24.32-5.25-1.02-.33-1.15h13l-18.29,57.65c-.52,1.72-.74,2.97-.66,3.73.08.77.46,1.15,1.15,1.15.46,0,1.01-.25,1.64-.76.63-.51,1.39-1.29,2.3-2.36.9-1.07,1.98-2.43,3.24-4.1l1.35,1.15c-2.21,3.55-4.37,6.26-6.46,8.12-2.09,1.86-4.11,2.79-6.05,2.79-1.48,0-2.54-.5-3.18-1.5-.64-1-.96-2.45-.96-4.37,0-.96.18-2,.53-3.14.36-1.13.85-2.45,1.48-3.96l-.16-.29c-2.71,4.78-5.13,8.19-7.26,10.21-2.13,2.02-4.43,3.03-6.89,3.03ZM798.25,1121.94c1.15,0,2.51-.74,4.08-2.23,1.57-1.49,3.22-3.54,4.94-6.15,1.72-2.61,3.4-5.61,5.04-9,1.64-3.39,3.12-6.98,4.43-10.78.63-1.86,1.06-3.28,1.29-4.26.23-.98.36-1.87.39-2.67-.36-2.71-1.42-4.06-3.2-4.06-1.37,0-2.91.81-4.63,2.42s-3.45,3.73-5.19,6.36c-1.74,2.62-3.34,5.49-4.8,8.59-1.46,3.1-2.64,6.16-3.55,9.19-.9,3.02-1.35,5.71-1.35,8.06,0,1.59.23,2.74.7,3.46.46.72,1.08,1.09,1.84,1.09Z"/>
    <path class="cls-1" d="M837.09,1124.86c-2.82,0-5-.96-6.54-2.89-1.54-1.93-2.32-4.64-2.32-8.14,0-2.98.55-6.04,1.64-9.19,1.09-3.14,2.57-6.17,4.43-9.08,1.86-2.91,3.96-5.53,6.29-7.85,2.34-2.32,4.78-4.16,7.32-5.52,2.54-1.35,5.02-2.03,7.42-2.03,2.02,0,3.62.49,4.78,1.48,1.16.98,1.74,2.35,1.74,4.1,0,2.27-.98,4.48-2.95,6.64-1.97,2.16-4.69,4.09-8.16,5.8-3.47,1.71-7.48,3.04-12.01,4-1.31,2.87-2.29,5.52-2.93,7.93-.64,2.42-.96,4.56-.96,6.42,0,3.61,1.31,5.41,3.94,5.41,2.1,0,4.47-1.01,7.09-3.03,2.62-2.02,4.93-4.62,6.93-7.79l1.48,1.11c-5.58,8.42-11.3,12.63-17.18,12.63ZM840.24,1099.43c2.82-.66,5.45-1.76,7.91-3.3,2.46-1.54,4.46-3.3,5.99-5.27,1.53-1.97,2.3-3.88,2.3-5.74,0-1.64-.74-2.46-2.21-2.46-1.23,0-2.57.53-4.02,1.58-1.45,1.05-2.86,2.48-4.22,4.28-1.37,1.8-2.57,3.87-3.61,6.19l-2.13,4.72Z"/>
    <path class="cls-1" d="M860.13,1123.99l13.16-36.21c.19-.57.36-1.12.51-1.64.15-.52.23-.97.23-1.35,0-.66-.3-.98-.9-.98-.52,0-1.18.29-1.99.88-.81.59-1.67,1.39-2.6,2.42-.93,1.03-1.85,2.22-2.75,3.59l-1.27-1.27c1.8-2.76,3.82-5,6.05-6.7,2.23-1.71,4.27-2.56,6.13-2.56.96,0,1.72.35,2.3,1.05.57.7.86,1.73.86,3.1,0,1.09-.19,2.26-.57,3.49-.38,1.23-1.15,2.98-2.3,5.25l.29.12c2.35-4.59,4.59-7.91,6.72-9.94,2.13-2.04,4.32-3.05,6.56-3.05,1.45,0,2.66.41,3.63,1.23.97.82,1.46,1.93,1.46,3.32,0,1.09-.26,1.98-.78,2.64s-1.26,1-2.21,1c-.88,0-1.53-.25-1.97-.74-.44-.49-.86-.98-1.27-1.46-.41-.48-1.04-.72-1.89-.72-.96,0-1.96.48-3.01,1.44-1.05.96-2.17,2.39-3.34,4.29-1.18,1.9-2.43,4.28-3.77,7.13-1.34,2.86-2.78,6.19-4.31,9.98l-6.36,15.7h-6.6Z"/>
    <path class="cls-1" d="M897.85,1124.86c-1.31,0-2.38-.38-3.2-1.15-.82-.76-1.23-1.91-1.23-3.44,0-.68.08-1.47.23-2.36.15-.89.42-1.85.8-2.89l11.07-28.95c.14-.36.23-.65.27-.88.04-.23.06-.44.06-.64,0-.49-.29-.74-.86-.74-.79,0-1.74.45-2.83,1.35-1.09.9-2.16,2.13-3.2,3.69l-1.56-1.44c1.56-2.27,3.35-4.05,5.37-5.33,2.02-1.28,3.95-1.93,5.78-1.93,1.28,0,2.34.34,3.18,1.02.83.68,1.25,1.67,1.25,2.95,0,.77-.08,1.61-.25,2.54-.16.93-.44,1.87-.82,2.83l-10.95,27.88c-.08.19-.14.38-.16.55-.03.18-.04.35-.04.51,0,1.04.45,1.56,1.35,1.56.63,0,1.41-.43,2.36-1.29s2.52-2.6,4.74-5.23l1.44,1.03c-2.13,3.2-4.37,5.72-6.72,7.57-2.35,1.85-4.37,2.77-6.07,2.77ZM912.86,1070.81c-1.31,0-2.35-.42-3.12-1.25-.77-.83-1.15-1.95-1.15-3.34,0-1.5.51-2.8,1.52-3.9,1.01-1.09,2.16-1.64,3.44-1.64,1.17,0,2.21.42,3.1,1.27.89.85,1.33,1.91,1.33,3.2,0,.96-.25,1.87-.74,2.73s-1.13,1.57-1.91,2.11c-.78.55-1.61.82-2.48.82Z"/>
    <path class="cls-1" d="M921.88,1124.86c-2.32,0-4.16-.95-5.49-2.85-1.34-1.9-2.01-4.54-2.01-7.93,0-2.93.51-5.97,1.52-9.12,1.01-3.16,2.38-6.21,4.12-9.14,1.74-2.94,3.7-5.58,5.88-7.93,2.19-2.35,4.47-4.22,6.85-5.62,2.38-1.39,4.69-2.09,6.93-2.09,1.26,0,2.31.29,3.16.88.85.59,1.68,1.57,2.5,2.93l1.11-2.99h6.89l-11.65,34.16c-.63,1.8-.89,3.07-.78,3.79.11.72.49,1.09,1.15,1.09.46,0,1.04-.25,1.72-.76.68-.51,1.51-1.29,2.48-2.36s2.1-2.43,3.38-4.1l1.31,1.15c-2.35,3.55-4.62,6.26-6.81,8.12-2.19,1.86-4.22,2.79-6.11,2.79-2.68,0-4.02-1.57-4.02-4.72,0-1.2.15-2.45.45-3.73.3-1.28.92-2.79,1.84-4.51l-.41-.29c-2.65,4.65-5.08,8.02-7.28,10.11-2.2,2.09-4.45,3.14-6.75,3.14ZM923.19,1121.94c1.15,0,2.51-.74,4.1-2.21,1.58-1.48,3.25-3.51,5-6.11,1.75-2.6,3.47-5.59,5.17-8.98,1.69-3.39,3.23-7.01,4.59-10.87.68-1.86,1.1-3.29,1.25-4.29.15-1,.23-1.88.23-2.64,0-1.28-.3-2.28-.9-2.99-.6-.71-1.34-1.07-2.21-1.07-1.37,0-2.92.8-4.65,2.4-1.74,1.6-3.49,3.7-5.27,6.31-1.78,2.61-3.41,5.46-4.9,8.55-1.49,3.09-2.69,6.14-3.61,9.14-.92,3.01-1.37,5.69-1.37,8.04,0,1.64.2,2.84.6,3.59.4.75,1.06,1.13,1.99,1.13Z"/>
    <path class="cls-1" d="M970.06,1144.78c-1.69,0-3.11-.42-4.24-1.25-1.13-.83-1.7-1.96-1.7-3.38,0-1.07.28-1.91.84-2.52.56-.62,1.35-.92,2.36-.92.87,0,1.54.21,2.01.62.47.41.86.87,1.19,1.39.33.52.69.98,1.09,1.39.4.41.96.61,1.7.61.88,0,1.83-.37,2.87-1.11,1.04-.74,2.02-1.78,2.95-3.12.63-.88,1.16-1.71,1.6-2.5.44-.79.8-1.75,1.09-2.87.29-1.12.52-2.6.7-4.45.18-1.85.3-4.23.37-7.16.07-2.92.1-6.6.1-11.03s-.06-8.31-.16-11.4c-.11-3.09-.29-5.56-.55-7.42-.26-1.86-.6-3.2-1.01-4.04-.41-.83-.92-1.25-1.52-1.25-1.15,0-2.68,1.49-4.59,4.47l-1.31-1.23c1.17-2.32,2.71-4.15,4.61-5.47,1.9-1.33,3.83-1.99,5.8-1.99,1.2,0,2.2.35,2.99,1.05.79.7,1.42,1.94,1.89,3.73.46,1.79.8,4.31,1,7.57.21,3.25.31,7.42.31,12.51,0,2.16-.04,4.44-.12,6.83-.08,2.39-.19,5.09-.33,8.1l.25.25c1.91-2.82,3.61-5.88,5.08-9.21,1.48-3.32,2.64-6.51,3.51-9.57.86-3.06,1.29-5.62,1.29-7.67,0-1.83-.04-3.18-.12-4.04-.08-.86-.17-1.61-.27-2.23-.1-.63-.14-1.48-.14-2.54,0-1.39.32-2.54.96-3.42.64-.89,1.47-1.33,2.48-1.33s1.87.46,2.5,1.37c.63.92.94,2.15.94,3.71,0,1.94-.43,4.45-1.29,7.52-.86,3.08-2.04,6.47-3.55,10.19-1.5,3.72-3.24,7.52-5.21,11.42-1.97,3.9-4.08,7.65-6.34,11.26-2.26,3.61-4.55,6.85-6.89,9.74-2.34,2.88-4.63,5.17-6.87,6.87-2.24,1.69-4.33,2.54-6.27,2.54Z"/>
    <path class="cls-1" d="M1013.36,1144.29v-1.23l5.45-.98,21.12-58.88c-1.59.3-2.98.72-4.18,1.25-1.2.53-2.2,1.11-2.99,1.74l-.49-1.64c1.09-.96,2.37-1.76,3.83-2.42,1.46-.66,2.99-1.12,4.57-1.39l2.38-6.93,6.85-.94-2.42,7.3c4.65.57,8.22,2.3,10.72,5.17,2.5,2.87,3.75,6.34,3.75,10.41,0,3.69-.72,7.19-2.17,10.5-1.45,3.31-3.4,6.23-5.86,8.75-2.46,2.53-5.23,4.52-8.32,5.97-3.09,1.45-6.27,2.17-9.55,2.17-.49,0-1.05-.01-1.66-.04-.62-.03-1.24-.07-1.87-.12l-6.6,18.86,6.93.94v1.52h-19.48ZM1035.05,1120.84c2.51,0,4.95-.74,7.32-2.21,2.36-1.48,4.48-3.48,6.36-6.01,1.87-2.53,3.36-5.39,4.47-8.59,1.11-3.2,1.66-6.52,1.66-9.96,0-3.66-.67-6.46-2.01-8.39-1.34-1.93-3.03-2.89-5.08-2.89-.44,0-.77.06-1.01.16s-.42.36-.55.74l-12.96,37.11c.44.03.77.04,1,.04h.8Z"/>
    <path class="cls-1" d="M1071.75,1124.86c-2.32,0-4.16-.95-5.49-2.85-1.34-1.9-2.01-4.54-2.01-7.93,0-2.93.51-5.97,1.52-9.12,1.01-3.16,2.38-6.21,4.12-9.14,1.74-2.94,3.7-5.58,5.88-7.93,2.19-2.35,4.47-4.22,6.85-5.62,2.38-1.39,4.69-2.09,6.93-2.09,1.26,0,2.31.29,3.16.88.85.59,1.68,1.57,2.5,2.93l1.11-2.99h6.89l-11.65,34.16c-.63,1.8-.89,3.07-.78,3.79.11.72.49,1.09,1.15,1.09.46,0,1.04-.25,1.72-.76.68-.51,1.51-1.29,2.48-2.36s2.1-2.43,3.38-4.1l1.31,1.15c-2.35,3.55-4.62,6.26-6.81,8.12-2.19,1.86-4.22,2.79-6.11,2.79-2.68,0-4.02-1.57-4.02-4.72,0-1.2.15-2.45.45-3.73.3-1.28.92-2.79,1.84-4.51l-.41-.29c-2.65,4.65-5.08,8.02-7.28,10.11-2.2,2.09-4.45,3.14-6.75,3.14ZM1073.07,1121.94c1.15,0,2.51-.74,4.1-2.21,1.58-1.48,3.25-3.51,5-6.11,1.75-2.6,3.47-5.59,5.17-8.98,1.69-3.39,3.23-7.01,4.59-10.87.68-1.86,1.1-3.29,1.25-4.29.15-1,.23-1.88.23-2.64,0-1.28-.3-2.28-.9-2.99-.6-.71-1.34-1.07-2.21-1.07-1.37,0-2.92.8-4.65,2.4-1.74,1.6-3.49,3.7-5.27,6.31-1.78,2.61-3.41,5.46-4.9,8.55-1.49,3.09-2.69,6.14-3.61,9.14-.92,3.01-1.37,5.69-1.37,8.04,0,1.64.2,2.84.6,3.59.4.75,1.06,1.13,1.99,1.13Z"/>
    <path class="cls-1" d="M1112.27,1124.86c-2.21,0-4.15-.36-5.8-1.09-1.65-.72-2.94-1.69-3.85-2.89-.92-1.2-1.37-2.54-1.37-4.02,0-.96.29-1.78.86-2.48.57-.7,1.31-1.05,2.21-1.05,1.2,0,2.01.41,2.42,1.23.41.82.75,1.75,1.03,2.79.3,1.18.74,2.3,1.31,3.36.57,1.07,1.78,1.6,3.61,1.6s3.44-.73,4.59-2.19c1.15-1.46,1.72-3.33,1.72-5.6,0-.79-.12-1.61-.37-2.44-.25-.83-.66-1.8-1.23-2.91-.57-1.11-1.35-2.44-2.34-4-1.8-2.92-3.08-5.35-3.83-7.28-.75-1.93-1.13-3.78-1.13-5.56,0-2.24.57-4.29,1.7-6.13,1.13-1.85,2.66-3.31,4.57-4.41,1.91-1.09,4.03-1.64,6.36-1.64,1.91,0,3.66.35,5.25,1.05,1.58.7,2.86,1.61,3.81,2.75.96,1.13,1.44,2.36,1.44,3.67,0,.98-.29,1.79-.88,2.42-.59.63-1.33.94-2.23.94-1.72,0-2.73-1.19-3.04-3.57-.22-2-.57-3.31-1.07-3.94-.49-.63-1.45-.94-2.87-.94-2,0-3.52.66-4.57,1.97s-1.58,3.08-1.58,5.29c0,1.39.31,2.86.92,4.41.62,1.54,1.67,3.62,3.18,6.21,1.69,2.82,2.87,5.1,3.53,6.85.66,1.75.98,3.46.98,5.13,0,2.41-.59,4.55-1.76,6.42-1.18,1.87-2.77,3.35-4.78,4.43-2.01,1.08-4.27,1.62-6.79,1.62Z"/>
    <path class="cls-1" d="M1136.3,1124.86c-2.79,0-4.18-1.6-4.18-4.8,0-.9.1-1.92.31-3.05.21-1.13.64-2.75,1.31-4.86.67-2.1,1.69-5.04,3.06-8.82l7.13-19.72h-5.62l.7-2.62h5.86l4.26-11.93,7.34-.82-4.59,12.75h5.95l-.74,2.62h-6.15l-5.7,15.66c-1.5,4.07-2.69,7.31-3.55,9.7-.86,2.39-1.49,4.19-1.89,5.39-.4,1.2-.65,2.05-.76,2.54-.11.49-.16.89-.16,1.19,0,1.29.51,1.93,1.52,1.93.71,0,1.61-.51,2.69-1.54,1.08-1.03,2.53-2.69,4.37-4.98l1.39,1.03c-2.19,3.28-4.4,5.82-6.64,7.63-2.24,1.8-4.21,2.71-5.9,2.71Z"/>
    <path class="cls-1" d="M1163.44,1124.86c-2.82,0-5-.96-6.54-2.89-1.54-1.93-2.32-4.64-2.32-8.14,0-2.98.55-6.04,1.64-9.19,1.09-3.14,2.57-6.17,4.43-9.08,1.86-2.91,3.96-5.53,6.29-7.85,2.34-2.32,4.78-4.16,7.32-5.52,2.54-1.35,5.02-2.03,7.42-2.03,2.02,0,3.62.49,4.78,1.48,1.16.98,1.74,2.35,1.74,4.1,0,2.27-.98,4.48-2.95,6.64-1.97,2.16-4.69,4.09-8.16,5.8-3.47,1.71-7.48,3.04-12.01,4-1.31,2.87-2.29,5.52-2.93,7.93-.64,2.42-.96,4.56-.96,6.42,0,3.61,1.31,5.41,3.94,5.41,2.1,0,4.47-1.01,7.09-3.03,2.62-2.02,4.93-4.62,6.93-7.79l1.48,1.11c-5.58,8.42-11.3,12.63-17.18,12.63ZM1166.6,1099.43c2.82-.66,5.45-1.76,7.91-3.3,2.46-1.54,4.46-3.3,5.99-5.27,1.53-1.97,2.3-3.88,2.3-5.74,0-1.64-.74-2.46-2.21-2.46-1.23,0-2.57.53-4.02,1.58-1.45,1.05-2.86,2.48-4.22,4.28-1.37,1.8-2.57,3.87-3.61,6.19l-2.13,4.72Z"/>
    <path class="cls-1" d="M1189.64,1124.86c-1.09,0-1.95-.47-2.56-1.39s-.92-2.17-.92-3.73c0-.57.07-1.25.21-2.03.14-.78.42-1.86.84-3.24.42-1.38,1.02-3.24,1.8-5.58.78-2.34,1.81-5.35,3.1-9.04,1.28-3.69,2.88-8.24,4.8-13.65l9.35-26.53-5.21-1.02-.16-1.15h13.53l-15.09,41.78c-1.69,4.73-3.01,8.38-3.94,10.95-.93,2.57-1.57,4.45-1.91,5.64-.34,1.19-.51,2.1-.51,2.73,0,.41.16.75.47,1.02.31.27.64.41.96.41.55,0,1.33-.39,2.36-1.17s2.63-2.56,4.82-5.35l1.52,1.03c-2.3,3.31-4.65,5.86-7.05,7.65-2.41,1.79-4.54,2.69-6.4,2.69Z"/>
    <path class="cls-1" d="M1216.05,1124.86c-2.82,0-5-.96-6.54-2.89-1.54-1.93-2.32-4.64-2.32-8.14,0-2.98.55-6.04,1.64-9.19,1.09-3.14,2.57-6.17,4.43-9.08,1.86-2.91,3.96-5.53,6.29-7.85,2.34-2.32,4.78-4.16,7.32-5.52,2.54-1.35,5.02-2.03,7.42-2.03,2.02,0,3.62.49,4.78,1.48,1.16.98,1.74,2.35,1.74,4.1,0,2.27-.98,4.48-2.95,6.64-1.97,2.16-4.69,4.09-8.16,5.8-3.47,1.71-7.48,3.04-12.01,4-1.31,2.87-2.29,5.52-2.93,7.93-.64,2.42-.96,4.56-.96,6.42,0,3.61,1.31,5.41,3.94,5.41,2.1,0,4.47-1.01,7.09-3.03,2.62-2.02,4.93-4.62,6.93-7.79l1.48,1.11c-5.58,8.42-11.3,12.63-17.18,12.63ZM1219.21,1099.43c2.82-.66,5.45-1.76,7.91-3.3,2.46-1.54,4.46-3.3,5.99-5.27,1.53-1.97,2.3-3.88,2.3-5.74,0-1.64-.74-2.46-2.21-2.46-1.23,0-2.57.53-4.02,1.58-1.45,1.05-2.86,2.48-4.22,4.28-1.37,1.8-2.57,3.87-3.61,6.19l-2.13,4.72Z"/>
    <path class="cls-1" d="M1239.1,1123.99l13.16-36.21c.19-.57.36-1.12.51-1.64.15-.52.23-.97.23-1.35,0-.66-.3-.98-.9-.98-.52,0-1.18.29-1.99.88-.81.59-1.67,1.39-2.6,2.42-.93,1.03-1.85,2.22-2.75,3.59l-1.27-1.27c1.8-2.76,3.82-5,6.05-6.7,2.23-1.71,4.27-2.56,6.13-2.56.96,0,1.72.35,2.3,1.05.57.7.86,1.73.86,3.1,0,1.09-.19,2.26-.57,3.49-.38,1.23-1.15,2.98-2.3,5.25l.29.12c2.35-4.59,4.59-7.91,6.72-9.94,2.13-2.04,4.32-3.05,6.56-3.05,1.45,0,2.66.41,3.63,1.23.97.82,1.46,1.93,1.46,3.32,0,1.09-.26,1.98-.78,2.64s-1.26,1-2.21,1c-.88,0-1.53-.25-1.97-.74-.44-.49-.86-.98-1.27-1.46-.41-.48-1.04-.72-1.89-.72-.96,0-1.96.48-3.01,1.44-1.05.96-2.17,2.39-3.34,4.29-1.18,1.9-2.43,4.28-3.77,7.13-1.34,2.86-2.78,6.19-4.31,9.98l-6.36,15.7h-6.6Z"/>
    <path class="cls-1" d="M1278.01,1124.86c-1.34,0-2.42-.38-3.24-1.15-.82-.76-1.23-1.91-1.23-3.44,0-.68.09-1.47.27-2.36.18-.89.44-1.85.8-2.89l9.88-28.95c.27-.82.38-1.4.31-1.74-.07-.34-.35-.51-.84-.51-.79,0-1.74.45-2.83,1.35-1.09.9-2.16,2.13-3.2,3.69l-1.56-1.44c1.56-2.27,3.35-4.05,5.37-5.33,2.02-1.28,3.95-1.93,5.78-1.93,1.28,0,2.34.34,3.18,1.02.83.68,1.25,1.67,1.25,2.95,0,.77-.1,1.61-.29,2.54-.19.93-.45,1.87-.78,2.83l-9.8,27.88c-.14.47-.21.82-.21,1.07,0,1.04.46,1.56,1.39,1.56.63,0,1.41-.43,2.36-1.29.94-.86,2.53-2.6,4.78-5.23l1.35,1.03c-2.1,3.2-4.33,5.72-6.68,7.57s-4.37,2.77-6.07,2.77ZM1285.31,1072.78l-1.07-.9,7.87-13.86c1.31-2.38,2.73-3.57,4.26-3.57.96,0,1.76.33,2.4.98.64.66.96,1.48.96,2.46,0,.79-.27,1.6-.8,2.42-.53.82-1.41,1.76-2.64,2.83l-10.99,9.64Z"/>
    <path class="cls-1" d="M1302,1124.86c-2.32,0-4.16-.95-5.49-2.85-1.34-1.9-2.01-4.54-2.01-7.93,0-2.93.51-5.97,1.52-9.12,1.01-3.16,2.38-6.21,4.12-9.14,1.74-2.94,3.7-5.58,5.88-7.93,2.19-2.35,4.47-4.22,6.85-5.62,2.38-1.39,4.69-2.09,6.93-2.09,1.26,0,2.31.29,3.16.88.85.59,1.68,1.57,2.5,2.93l1.11-2.99h6.89l-11.65,34.16c-.63,1.8-.89,3.07-.78,3.79.11.72.49,1.09,1.15,1.09.46,0,1.04-.25,1.72-.76.68-.51,1.51-1.29,2.48-2.36s2.1-2.43,3.38-4.1l1.31,1.15c-2.35,3.55-4.62,6.26-6.81,8.12-2.19,1.86-4.22,2.79-6.11,2.79-2.68,0-4.02-1.57-4.02-4.72,0-1.2.15-2.45.45-3.73.3-1.28.92-2.79,1.84-4.51l-.41-.29c-2.65,4.65-5.08,8.02-7.28,10.11-2.2,2.09-4.45,3.14-6.75,3.14ZM1303.31,1121.94c1.15,0,2.51-.74,4.1-2.21,1.58-1.48,3.25-3.51,5-6.11,1.75-2.6,3.47-5.59,5.17-8.98,1.69-3.39,3.23-7.01,4.59-10.87.68-1.86,1.1-3.29,1.25-4.29.15-1,.23-1.88.23-2.64,0-1.28-.3-2.28-.9-2.99-.6-.71-1.34-1.07-2.21-1.07-1.37,0-2.92.8-4.65,2.4-1.74,1.6-3.49,3.7-5.27,6.31-1.78,2.61-3.41,5.46-4.9,8.55-1.49,3.09-2.69,6.14-3.61,9.14-.92,3.01-1.37,5.69-1.37,8.04,0,1.64.2,2.84.6,3.59.4.75,1.06,1.13,1.99,1.13Z"/>
  </g>
  <g>
    <path class="cls-1" d="M383.4,1013.19c0-6.08,9-2.93,8.55-16.65v-102.75c-.46-7.72-.38-5.5-3.15-18.46-.34-1.57-3-5.7-3.25-8.1-.17-1.57,1.17-3.96,3.66-4.66,3.55-.58,4.17.27,7.4,3.42,6.24,6.11,25.46,23.24,27,24.57l77.94,67.02c2.93,2.7,5.63,2.02,5.63-3.15v-72.69c0-17.78-8.1-13.28-8.1-19.13,0-3.83,3.6-3.83,13.28-3.83h15.3c8.33,0,12.83.45,12.83,4.28,0,5.63-8.1,1.58-8.1,17.33,0,0,.12,123.14.26,125.34.36,5.48-6.26,8.48-10.13,4.59-7.87-7.9-18.28-18.33-20.06-20.11l-78.76-66.84c-4.05-3.37-6.75-2.25-6.75,2.93v70.66c0,14.18,9.45,9.9,9.45,16.2,0,3.6-2.47,3.15-8.32,3.15h-26.33c-4.5,0-8.32,0-8.32-3.15Z"/>
    <path class="cls-1" d="M565.2,1013.64c0-6.08,9.9-3.6,9.9-14.4l-.23-121.07c0-14.63-9-9-9-16.43,0-3.83,7.65-2.93,14.4-2.93h107.79c2.7,0,5.62.68,5.62,4.95v16.88c0,2.7,0,7.88-4.28,7.88-4.5,0-2.02-7.43-14.4-7.43h-70.21c-2.7,0-4.28,1.35-4.28,4.5v33.53c0,4.95,1.13,6.3,5.17,6.3h45.91c7.43,0,7.43-6.07,10.58-6.07,4.05,0,4.28,3.6,4.28,8.55v18.23c0,6.3-1.58,8.1-4.73,8.1-2.7,0-3.6-6.75-10.13-6.75h-44.56c-4.28,0-6.53,1.8-6.3,5.4v35.78c0,5.17,2.47,5.4,6.75,5.4h69.31c11.25,0,7.2-7.88,12.83-7.88,4.05,0,4.05,3.6,4.05,7.88v17.55c0,3.15-1.13,4.73-3.83,4.73h-115.89c-2.02,0-8.78.68-8.78-2.7Z"/>
    <path class="cls-1" d="M724.27,1002.62c-6.98-4.95-9.45.45-12.83-2.02-3.37-2.48-.67-6.3,2.25-10.35l10.13-13.95c2.93-4.05,6.53-7.43,9.45-5.17,2.7,2.02-1.35,5.85,3.83,10.8,2.25,2.25,10.13,12.83,42.98,12.83,19.8,0,36.68-4.5,36.68-23.63,0-37.36-100.59-4.73-102.17-70.44-.67-29.03,22.95-45.46,65.49-45.46,29.03,0,42.98,9.68,45.91,11.48,8.32,4.73,9.67-1.8,13.5,1.12,2.93,2.25,1.35,5.4-1.13,9.23l-11.47,17.78c-2.47,3.83-3.83,6.3-7.43,4.5-3.6-1.8,1.58-7.43-9.23-13.5-1.58-.9-9.68-6.98-30.15-6.98s-40.28,3.83-40.28,21.83c0,36.68,103.07,4.05,103.07,70.44,0,33.98-27.68,47.93-62.78,47.93-38.03,0-52.44-13.95-55.81-16.43Z"/>
    <path class="cls-1" d="M904.51,1012.74c0-4.05,7.88-4.28,7.88-12.38l.45-113.42c0-4.05-.9-6.3-6.3-6.3l-29.03-.22c-13.05,0-10.58,6.07-14.85,6.07-2.93,0-4.05-1.8-4.05-8.32v-14.18c0-3.83,1.8-5.18,5.85-5.18h120.39c3.15,0,5.4,1.35,5.4,4.73v12.6c0,8.55-1.35,11.25-4.28,11.25-4.5,0-2.48-6.75-11.25-6.75h-28.8c-4.05,0-5.85,1.8-5.85,6.08l-.23,113.87c0,8.55,7.65,7.65,7.65,11.7,0,3.37-2.02,4.05-5.4,4.05h-31.96c-3.38,0-5.63-.68-5.63-3.6Z"/>
    <path class="cls-1" d="M981.23,1012.07c0-5.62,7.65-3.6,11.03-13.5l42.75-123.32c2.7-8.1-3.15-7.88-3.15-12.16,0-3.15,2.03-4.28,5.4-4.28h33.08c3.6,0,5.63,1.13,5.63,4.28,0,4.95-7.43,4.28-4.28,12.16l48.16,124.44c3.38,8.78,9.9,7.2,9.9,12.38,0,3.83-2.25,4.28-8.55,4.28h-27.01c-5.17,0-7.43-.45-7.43-3.83,0-6.53,7.88-3.83,5.18-11.47l-4.05-11.25c-1.13-3.15-2.92-3.6-5.85-3.6h-54.46c-2.25,0-4.95.67-6.07,3.15l-2.02,7.88c-3.38,13.05,3.37,7.65,3.37,15.3,0,3.38-3.37,3.83-9.9,3.83h-25.43c-3.15,0-6.3-.68-6.3-4.28ZM1075.3,963.91c2.7,0,3.15-2.47,2.25-4.95l-22.28-62.11c-.9-2.47-2.92-2.25-3.6-.23l-21.83,63.24c-.9,2.7.45,4.05,3.15,4.05h42.31Z"/>
    <path class="cls-1" d="M1141.21,1012.97c0-4.95,8.33-5.17,8.33-14.4v-119.04c0-14.86-8.55-11.48-8.55-17.1,0-2.7,3.15-3.6,12.6-3.6h68.19c29.25,0,56.26,15.98,56.26,51.31,0,18-12.38,33.76-20.93,39.38-3.15,2.02-3.38,3.83-2.25,6.53l18.91,45.23c2.7,6.53,9.9,5.4,9.9,11.48,0,3.6-3.6,3.6-7.43,3.6h-21.83c-9,0-11.03-.68-11.03-3.38,0-6.3,8.77-4.28,4.73-13.95l-16.2-38.03c-1.58-3.83-3.15-4.5-9.22-4.5h-42.09c-2.02,0-5.85-.45-5.85,8.1v34.43c0,9.9,8.1,8.33,8.1,13.73,0,2.47-2.02,3.6-7.65,3.6h-28.36c-1.8,0-5.63,0-5.63-3.38ZM1224.93,933.98c14.85,0,26.78-9.67,26.78-23.85,0-16.2-8.32-27.45-29.93-27.45h-40.06c-4.28,0-6.98,1.35-6.98,6.75l.23,39.16c0,4.05,3.38,5.4,7.65,5.4h42.3Z"/>
    <path class="cls-1" d="M1303.89,1013.64c0-6.08,9.9-3.6,9.9-14.4l-.23-121.07c0-14.63-9-9-9-16.43,0-3.83,7.65-2.93,14.4-2.93h107.79c2.7,0,5.62.68,5.62,4.95v16.88c0,2.7,0,7.88-4.28,7.88-4.5,0-2.02-7.43-14.4-7.43h-70.21c-2.7,0-4.28,1.35-4.28,4.5v33.53c0,4.95,1.13,6.3,5.17,6.3h45.91c7.43,0,7.43-6.07,10.58-6.07,4.05,0,4.28,3.6,4.28,8.55v18.23c0,6.3-1.58,8.1-4.73,8.1-2.7,0-3.6-6.75-10.13-6.75h-44.56c-4.28,0-6.53,1.8-6.3,5.4v35.78c0,5.17,2.47,5.4,6.75,5.4h69.31c11.25,0,7.2-7.88,12.83-7.88,4.05,0,4.05,3.6,4.05,7.88v17.55c0,3.15-1.13,4.73-3.83,4.73h-115.89c-2.02,0-8.78.68-8.78-2.7Z"/>
    <path class="cls-1" d="M1452.62,1012.3l-4.28-7.2c-2.03-3.6-.68-7.2.9-9.23l83.04-109.14c1.8-2.7-.22-4.73-3.15-4.73h-64.59c-9.68,0-7.88,7.2-12.6,7.2-2.25,0-4.05-.22-3.83-6.98v-17.55c0-3.6,4.05-5.85,7.88-5.85h100.82c3.6,0,7.2.68,8.78,4.5l2.7,6.75c1.58,3.83,0,7.88-1.58,10.13l-80.34,110.27c-1.13,1.58,0,2.7,1.35,2.7h60.53c9.68,0,10.13-6.75,13.95-6.75,2.93,0,3.38,2.93,3.38,7.43v15.08c0,4.5-4.05,7.43-7.88,7.43h-98.12c-2.93,0-5.85-2.02-6.98-4.05Z"/>
  </g>
</svg>