<?xml version="1.0" encoding="UTF-8"?>
<svg id="Capa_1" data-name="Capa 1" xmlns="http://www.w3.org/2000/svg" viewBox="0 0 2000 2000">
  <defs>
    <style>
      .cls-1 {
        fill: #fff;
      }
    </style>
  </defs>
  <g>
    <path class="cls-1" d="M835.37,1337.59l14.39-48.52,18.99,5.63c3.46,1.03,6.43,2.53,8.88,4.52,2.46,1.98,4.35,4.36,5.7,7.12,1.34,2.76,2.1,5.78,2.29,9.05.18,3.28-.26,6.71-1.33,10.32-1.07,3.61-2.58,6.74-4.53,9.4-1.94,2.67-4.22,4.79-6.82,6.35-2.6,1.57-5.48,2.51-8.64,2.83-3.16.32-6.47-.04-9.94-1.06l-18.99-5.63ZM844.77,1333.37l.02-.83,11.37,3.37c2.45.73,4.74.98,6.9.76,2.15-.21,4.1-.85,5.85-1.92,1.75-1.07,3.29-2.56,4.61-4.48,1.32-1.92,2.38-4.2,3.16-6.83.78-2.63,1.14-5.1,1.07-7.41s-.56-4.4-1.45-6.28c-.9-1.88-2.19-3.49-3.85-4.84-1.66-1.34-3.71-2.38-6.16-3.11l-11.58-3.43.6-.5-10.52,35.49Z"/>
    <path class="cls-1" d="M891.99,1352.13l5.6-50.3,31.69,3.52-.83,7.47-23.93-2.65-3.93,35.35,23.93,2.66-.83,7.47-31.69-3.52ZM897.97,1330.46l.83-7.47,24.22,2.69-.83,7.47-24.21-2.69Z"/>
    <path class="cls-1" d="M955.73,1356.29c-2.75.09-5.3-.18-7.66-.81-2.37-.64-4.52-1.66-6.47-3.06-1.96-1.4-3.72-3.16-5.29-5.27l5.13-6.33c2.48,3.29,4.83,5.54,7.04,6.77,2.22,1.22,4.82,1.78,7.8,1.67,1.83-.06,3.48-.42,4.96-1.04,1.47-.64,2.62-1.47,3.45-2.51.83-1.04,1.22-2.21,1.18-3.52-.04-.86-.2-1.68-.52-2.44-.32-.76-.79-1.45-1.41-2.05-.62-.61-1.41-1.16-2.37-1.65-.96-.49-2.07-.92-3.34-1.29-1.26-.37-2.73-.66-4.37-.9-2.62-.43-4.91-1.05-6.87-1.85s-3.61-1.82-4.96-3.08c-1.35-1.26-2.37-2.7-3.05-4.34-.68-1.64-1.07-3.49-1.14-5.56-.07-2.03.3-3.92,1.14-5.68.83-1.77,2.01-3.32,3.52-4.65,1.52-1.33,3.33-2.39,5.42-3.16,2.09-.77,4.37-1.2,6.83-1.29,2.6-.09,4.99.16,7.19.76,2.19.6,4.15,1.53,5.89,2.8,1.73,1.26,3.18,2.84,4.36,4.72l-5.3,5.61c-1.02-1.55-2.15-2.85-3.4-3.89s-2.6-1.81-4.06-2.32c-1.47-.5-3.02-.72-4.66-.66-1.88.06-3.5.42-4.88,1.04-1.38.63-2.44,1.48-3.21,2.54-.76,1.07-1.11,2.29-1.06,3.69.04,1.01.26,1.93.68,2.76.42.83,1.03,1.55,1.85,2.17.82.62,1.91,1.16,3.28,1.62,1.37.46,3,.85,4.89,1.16,2.67.49,5.06,1.14,7.16,1.96,2.1.81,3.9,1.8,5.39,2.95,1.48,1.15,2.63,2.46,3.43,3.93.8,1.47,1.23,3.07,1.29,4.8.11,3.23-.54,6.05-1.94,8.47-1.41,2.41-3.47,4.31-6.16,5.68-2.7,1.37-5.95,2.13-9.76,2.27Z"/>
    <path class="cls-1" d="M988.75,1353.35l-9.16-49.77,19.48-3.59c3.56-.66,6.88-.65,9.96,0s5.85,1.91,8.3,3.76c2.45,1.86,4.5,4.2,6.15,7.03,1.65,2.83,2.81,6.1,3.49,9.79.68,3.7.76,7.18.23,10.44-.53,3.25-1.6,6.18-3.21,8.75-1.61,2.58-3.76,4.72-6.43,6.44-2.68,1.72-5.79,2.9-9.35,3.56l-19.48,3.58ZM995.21,1345.33l-.35-.74,11.66-2.15c2.51-.47,4.68-1.28,6.5-2.45,1.81-1.16,3.26-2.62,4.34-4.36,1.07-1.74,1.77-3.76,2.08-6.08.31-2.31.22-4.82-.28-7.52-.49-2.7-1.3-5.06-2.41-7.09-1.1-2.03-2.49-3.67-4.14-4.94-1.66-1.26-3.53-2.13-5.62-2.57-2.09-.45-4.39-.44-6.91.02l-11.88,2.18.31-.72,6.69,36.41Z"/>
    <path class="cls-1" d="M1045.04,1341.42l-15.7-48.12,30.31-9.89,2.34,7.15-22.89,7.47,11.04,33.81,22.89-7.47,2.33,7.15-30.31,9.89ZM1041.52,1319.22l-2.34-7.15,23.17-7.55,2.33,7.15-23.16,7.55Z"/>
    <path class="cls-1" d="M1115.04,1310.11l-18.48-36.67,3.3.6-6.53,9.21-4.94-5.13,8.83-12.54,3.35-1.69,21.51,42.68-7.03,3.54ZM1109.46,1316.89l-3.38-6.72,21.56-10.87,3.39,6.71-21.57,10.87Z"/>
    <path class="cls-1" d="M1150.86,1294.33l-.63-.46-4.12-35.08,3.35,4.98c.03,1.69-.11,3.28-.4,4.77-.29,1.49-.75,2.89-1.38,4.22-.62,1.33-1.38,2.51-2.27,3.54-.88,1.04-1.91,1.91-3.05,2.62-2.33,1.45-4.86,2.17-7.59,2.17-2.73,0-5.32-.66-7.78-1.97-2.46-1.31-4.44-3.17-5.94-5.58-1.81-2.9-2.78-5.92-2.91-9.04s.52-6.07,1.95-8.84c1.43-2.76,3.56-5.02,6.38-6.78,2.05-1.28,4.2-2.1,6.46-2.49,2.26-.38,4.48-.32,6.65.16,2.18.49,4.2,1.36,6.06,2.61,1.86,1.26,3.4,2.87,4.62,4.83.64,1.02,1.21,2.18,1.74,3.47.52,1.3,1,2.82,1.43,4.56.44,1.74.84,3.79,1.22,6.14.38,2.35.76,5.1,1.15,8.27l1.55,13.85-6.51,4.05ZM1139.97,1271.9c1.6-1,2.8-2.25,3.63-3.75.82-1.5,1.21-3.09,1.18-4.74-.04-1.65-.52-3.24-1.47-4.75-.99-1.6-2.24-2.82-3.73-3.68-1.5-.85-3.1-1.26-4.81-1.22-1.7.04-3.35.56-4.95,1.55-1.48.92-2.56,2.09-3.26,3.52-.7,1.43-1,2.98-.9,4.65.1,1.67.68,3.34,1.72,5.02.9,1.43,2.06,2.55,3.5,3.35,1.43.81,2.97,1.24,4.58,1.28,1.62.05,3.12-.37,4.51-1.23Z"/>
    <path class="cls-1" d="M1189.51,1268.13c-2.49,1.9-5.16,3.1-8.02,3.61-2.85.51-5.56.35-8.13-.49-2.57-.83-4.67-2.32-6.31-4.46-.9-1.19-1.6-2.44-2.07-3.74-.48-1.3-.71-2.65-.72-4.04,0-1.4.2-2.82.61-4.28.41-1.46,1.02-2.96,1.85-4.5l.57,1.47c-1.29.38-2.53.59-3.74.63-1.21.04-2.38-.08-3.51-.37-1.13-.29-2.16-.75-3.09-1.37-.93-.63-1.74-1.4-2.45-2.32-1.55-2.03-2.38-4.3-2.51-6.81-.12-2.51.39-4.98,1.53-7.43,1.14-2.44,2.88-4.55,5.22-6.33,2.34-1.78,4.84-2.89,7.5-3.35,2.65-.44,5.18-.28,7.57.52,2.39.78,4.35,2.2,5.9,4.23.71.92,1.23,1.91,1.59,2.97.35,1.07.52,2.15.51,3.25,0,1.09-.2,2.25-.59,3.45-.39,1.2-.94,2.41-1.65,3.61l-.92-.85c1.5-.42,3-.61,4.49-.6,1.5.01,2.94.22,4.33.61,1.39.4,2.66.97,3.82,1.73,1.15.76,2.15,1.69,2.99,2.8,1.67,2.19,2.56,4.63,2.68,7.33.11,2.7-.46,5.34-1.72,7.94-1.26,2.6-3.16,4.86-5.7,6.79ZM1171.25,1244.14c1.23-.93,2.15-2,2.78-3.21.63-1.21.92-2.41.88-3.62-.04-1.21-.46-2.33-1.25-3.37-.79-1.04-1.77-1.74-2.94-2.13-1.16-.38-2.42-.44-3.76-.18-1.35.27-2.63.86-3.86,1.8-1.23.93-2.15,2.01-2.76,3.23-.61,1.23-.9,2.45-.84,3.68.06,1.23.48,2.37,1.27,3.4.79,1.04,1.76,1.74,2.92,2.1,1.15.37,2.39.4,3.72.12,1.33-.28,2.61-.89,3.83-1.83ZM1185.13,1262.38c1.42-1.08,2.49-2.32,3.21-3.71.73-1.4,1.06-2.81,1.01-4.22-.05-1.42-.52-2.72-1.43-3.91-.97-1.26-2.15-2.14-3.54-2.62-1.39-.48-2.87-.58-4.45-.3-1.57.29-3.06.97-4.48,2.05-1.43,1.09-2.47,2.34-3.14,3.76-.68,1.43-.97,2.87-.88,4.34.09,1.48.62,2.85,1.58,4.11.88,1.15,1.99,1.94,3.35,2.37,1.35.42,2.8.49,4.33.2,1.54-.29,3.01-.97,4.43-2.05Z"/>
    <path class="cls-1" d="M1226.73,1236.36l-27.71-29.91,1.62-.91,1.6,26.2-.8-.44,23.07-21.37,4.86,5.25-26.62,24.67-6.86-2.51-2.45-39.13,4.41-4.08,34.39,37.13-5.51,5.1Z"/>
  </g>
  <path class="cls-1" d="M1290.33,720.97c-141-137.13-371.43-74.45-496.53,53.25-132.76,125.94-202,357.97-59.9,503.17,21.11,20.86,44.25,37.35,68.81,49.89l20.11-48.12c-19.1-10.01-36.68-22.88-52.08-38.53-121.57-122.15-70.92-333.23,43.83-445.63,113.24-118.79,324.32-177.51,452.28-50.56,58.97,59.56,77.48,148.74,62.59,229.84-13.88,76.56-52.5,147.9-106.51,204.85l32.22,31.13c119.97-129.22,171.2-354.1,35.17-489.29Z"/>
  <path class="cls-1" d="M1142.68,830.5h-30.09c-19.09,0-26.1,0-26.1,7.54,0,11.54,15.91,2.64,15.91,37.64v143.01c0,10.18-5.36,11.54-11.09,6.19l-153.35-131.85c-3.02-2.64-40.88-36.36-53.1-48.35-6.33-6.19-7.54-7.92-14.56-6.71-4.9,1.36-7.54,6.03-7.17,9.13.45,4.68,5.73,12.82,6.34,15.92,5.51,25.5,5.28,21.12,6.26,36.36v202.15c.83,27-16.89,20.74-16.89,32.74,0,6.19,7.54,6.19,16.44,6.19h51.74c11.54,0,16.44.9,16.44-6.19,0-12.37-18.63-4-18.63-31.91v-139.02c0-10.18,5.28-12.37,13.28-5.73l154.93,131.47c3.55,3.54,23.99,24.06,39.53,39.6,7.62,7.62,20.59,1.73,19.91-9.05-.3-4.3-.53-246.58-.53-246.58,0-31,15.92-23.01,15.92-34.09,0-7.54-8.83-8.45-25.2-8.45Z"/>
</svg>