<?xml version="1.0" encoding="UTF-8"?>
<svg id="Capa_1" data-name="Capa 1" xmlns="http://www.w3.org/2000/svg" viewBox="0 0 2000 2000">
  <defs>
    <style>
      .cls-1 {
        fill: #fbd6c6;
      }
    </style>
  </defs>
  <path class="cls-1" d="M831.11,1131.74c0-13.23,19.6-6.37,18.62-36.26v-223.69c-1.01-16.8-.83-11.97-6.86-40.18-.73-3.42-6.52-12.41-7.09-17.62-.37-3.41,2.56-8.63,7.96-10.13,7.74-1.27,9.07.58,16.1,7.46,13.58,13.29,55.42,50.6,58.79,53.5l169.68,145.92c6.37,5.88,12.25,4.41,12.25-6.86v-158.25c0-38.7-17.64-28.9-17.64-41.64,0-8.33,7.84-8.33,28.9-8.33h33.31c18.13,0,27.93.98,27.93,9.31,0,12.25-17.64,3.43-17.64,37.73,0,0,.26,268.09.57,272.88.78,11.93-13.62,18.47-22.06,10-17.14-17.19-39.79-39.92-43.67-43.79l-171.47-145.51c-8.81-7.34-14.69-4.9-14.69,6.37v153.83c0,30.87,20.57,21.56,20.57,35.28,0,7.84-5.39,6.86-18.12,6.86h-57.32c-9.8,0-18.12,0-18.12-6.86Z"/>
  <path class="cls-1" d="M802.79,767.84c-113.84,111.47-164.12,320.9-43.53,442.14,56.41,57.32,141.93,76.02,220.42,62.79,162.98-26.12,304.46-164.61,333.95-327.08,14.7-80.47-3.63-168.91-62.1-227.98-127.01-126.02-336.37-67.72-448.74,50.13h0ZM782.18,747.22c124.13-126.7,352.72-188.92,492.65-52.81,139.51,138.65,80.42,372.55-47.26,498.2-124.73,133.1-361.87,195.26-504.8,53.86-141.04-144.06-72.29-374.3,59.41-499.25h0Z"/>
</svg>