<?xml version="1.0" encoding="UTF-8"?>
<svg id="Capa_1" data-name="Capa 1" xmlns="http://www.w3.org/2000/svg" viewBox="0 0 2000 2000">
  <defs>
    <style>
      .cls-1 {
        fill: #fff;
      }
    </style>
  </defs>
  <path class="cls-1" d="M378.33,1102.84c0-6.08,9-2.93,8.55-16.65v-102.75c-.46-7.72-.38-5.5-3.15-18.46-.34-1.57-3-5.7-3.25-8.1-.17-1.57,1.17-3.96,3.66-4.66,3.55-.58,4.17.27,7.4,3.42,6.24,6.11,25.46,23.24,27,24.57l77.94,67.02c2.93,2.7,5.63,2.02,5.63-3.15v-72.69c0-17.78-8.1-13.28-8.1-19.13,0-3.83,3.6-3.83,13.28-3.83h15.3c8.33,0,12.83.45,12.83,4.28,0,5.63-8.1,1.58-8.1,17.33,0,0,.12,123.14.26,125.34.36,5.48-6.26,8.48-10.13,4.59-7.87-7.9-18.28-18.33-20.06-20.11l-78.76-66.84c-4.05-3.37-6.75-2.25-6.75,2.93v70.66c0,14.18,9.45,9.9,9.45,16.2,0,3.6-2.47,3.15-8.32,3.15h-26.33c-4.5,0-8.32,0-8.32-3.15Z"/>
  <path class="cls-1" d="M560.13,1103.29c0-6.08,9.9-3.6,9.9-14.4l-.23-121.07c0-14.63-9-9-9-16.43,0-3.83,7.65-2.93,14.4-2.93h107.79c2.7,0,5.62.68,5.62,4.95v16.88c0,2.7,0,7.88-4.28,7.88-4.5,0-2.02-7.43-14.4-7.43h-70.21c-2.7,0-4.28,1.35-4.28,4.5v33.53c0,4.95,1.13,6.3,5.17,6.3h45.91c7.43,0,7.43-6.07,10.58-6.07,4.05,0,4.28,3.6,4.28,8.55v18.23c0,6.3-1.58,8.1-4.73,8.1-2.7,0-3.6-6.75-10.13-6.75h-44.56c-4.28,0-6.53,1.8-6.3,5.4v35.78c0,5.17,2.47,5.4,6.75,5.4h69.31c11.25,0,7.2-7.88,12.83-7.88,4.05,0,4.05,3.6,4.05,7.88v17.55c0,3.15-1.13,4.73-3.83,4.73h-115.89c-2.02,0-8.78.68-8.78-2.7Z"/>
  <path class="cls-1" d="M719.21,1092.27c-6.98-4.95-9.45.45-12.83-2.02-3.37-2.48-.67-6.3,2.25-10.35l10.13-13.95c2.93-4.05,6.53-7.43,9.45-5.17,2.7,2.02-1.35,5.85,3.83,10.8,2.25,2.25,10.13,12.83,42.98,12.83,19.8,0,36.68-4.5,36.68-23.63,0-37.36-100.59-4.73-102.17-70.44-.67-29.03,22.95-45.46,65.49-45.46,29.03,0,42.98,9.68,45.91,11.48,8.32,4.73,9.67-1.8,13.5,1.12,2.93,2.25,1.35,5.4-1.13,9.23l-11.47,17.78c-2.47,3.83-3.83,6.3-7.43,4.5-3.6-1.8,1.58-7.43-9.23-13.5-1.58-.9-9.68-6.98-30.15-6.98s-40.28,3.83-40.28,21.83c0,36.68,103.07,4.05,103.07,70.44,0,33.98-27.68,47.93-62.78,47.93-38.03,0-52.44-13.95-55.81-16.43Z"/>
  <path class="cls-1" d="M899.44,1102.39c0-4.05,7.88-4.28,7.88-12.38l.45-113.42c0-4.05-.9-6.3-6.3-6.3l-29.03-.22c-13.05,0-10.58,6.07-14.85,6.07-2.93,0-4.05-1.8-4.05-8.32v-14.18c0-3.83,1.8-5.18,5.85-5.18h120.39c3.15,0,5.4,1.35,5.4,4.73v12.6c0,8.55-1.35,11.25-4.28,11.25-4.5,0-2.48-6.75-11.25-6.75h-28.8c-4.05,0-5.85,1.8-5.85,6.08l-.23,113.87c0,8.55,7.65,7.65,7.65,11.7,0,3.37-2.02,4.05-5.4,4.05h-31.96c-3.38,0-5.63-.68-5.63-3.6Z"/>
  <path class="cls-1" d="M976.17,1101.72c0-5.62,7.65-3.6,11.03-13.5l42.75-123.32c2.7-8.1-3.15-7.88-3.15-12.16,0-3.15,2.03-4.28,5.4-4.28h33.08c3.6,0,5.63,1.13,5.63,4.28,0,4.95-7.43,4.28-4.28,12.16l48.16,124.44c3.38,8.78,9.9,7.2,9.9,12.38,0,3.83-2.25,4.28-8.55,4.28h-27.01c-5.17,0-7.43-.45-7.43-3.83,0-6.53,7.88-3.83,5.18-11.47l-4.05-11.25c-1.13-3.15-2.92-3.6-5.85-3.6h-54.46c-2.25,0-4.95.67-6.07,3.15l-2.02,7.88c-3.38,13.05,3.37,7.65,3.37,15.3,0,3.38-3.37,3.83-9.9,3.83h-25.43c-3.15,0-6.3-.68-6.3-4.28ZM1070.24,1053.56c2.7,0,3.15-2.47,2.25-4.95l-22.28-62.11c-.9-2.47-2.92-2.25-3.6-.23l-21.83,63.24c-.9,2.7.45,4.05,3.15,4.05h42.31Z"/>
  <path class="cls-1" d="M1136.15,1102.61c0-4.95,8.33-5.17,8.33-14.4v-119.04c0-14.86-8.55-11.48-8.55-17.1,0-2.7,3.15-3.6,12.6-3.6h68.19c29.25,0,56.26,15.98,56.26,51.31,0,18-12.38,33.76-20.93,39.38-3.15,2.02-3.38,3.83-2.25,6.53l18.91,45.23c2.7,6.53,9.9,5.4,9.9,11.48,0,3.6-3.6,3.6-7.43,3.6h-21.83c-9,0-11.03-.68-11.03-3.38,0-6.3,8.77-4.28,4.73-13.95l-16.2-38.03c-1.58-3.83-3.15-4.5-9.22-4.5h-42.09c-2.02,0-5.85-.45-5.85,8.1v34.43c0,9.9,8.1,8.33,8.1,13.73,0,2.47-2.02,3.6-7.65,3.6h-28.36c-1.8,0-5.63,0-5.63-3.38ZM1219.86,1023.63c14.85,0,26.78-9.67,26.78-23.85,0-16.2-8.32-27.45-29.93-27.45h-40.06c-4.28,0-6.98,1.35-6.98,6.75l.23,39.16c0,4.05,3.38,5.4,7.65,5.4h42.3Z"/>
  <path class="cls-1" d="M1298.82,1103.29c0-6.08,9.9-3.6,9.9-14.4l-.23-121.07c0-14.63-9-9-9-16.43,0-3.83,7.65-2.93,14.4-2.93h107.79c2.7,0,5.62.68,5.62,4.95v16.88c0,2.7,0,7.88-4.28,7.88-4.5,0-2.02-7.43-14.4-7.43h-70.21c-2.7,0-4.28,1.35-4.28,4.5v33.53c0,4.95,1.13,6.3,5.17,6.3h45.91c7.43,0,7.43-6.07,10.58-6.07,4.05,0,4.28,3.6,4.28,8.55v18.23c0,6.3-1.58,8.1-4.73,8.1-2.7,0-3.6-6.75-10.13-6.75h-44.56c-4.28,0-6.53,1.8-6.3,5.4v35.78c0,5.17,2.47,5.4,6.75,5.4h69.31c11.25,0,7.2-7.88,12.83-7.88,4.05,0,4.05,3.6,4.05,7.88v17.55c0,3.15-1.13,4.73-3.83,4.73h-115.89c-2.02,0-8.78.68-8.78-2.7Z"/>
  <path class="cls-1" d="M1447.55,1101.94l-4.28-7.2c-2.03-3.6-.68-7.2.9-9.23l83.04-109.14c1.8-2.7-.22-4.73-3.15-4.73h-64.59c-9.68,0-7.88,7.2-12.6,7.2-2.25,0-4.05-.22-3.83-6.98v-17.55c0-3.6,4.05-5.85,7.88-5.85h100.82c3.6,0,7.2.68,8.78,4.5l2.7,6.75c1.58,3.83,0,7.88-1.58,10.13l-80.34,110.27c-1.13,1.58,0,2.7,1.35,2.7h60.53c9.68,0,10.13-6.75,13.95-6.75,2.93,0,3.38,2.93,3.38,7.43v15.08c0,4.5-4.05,7.43-7.88,7.43h-98.12c-2.93,0-5.85-2.02-6.98-4.05Z"/>
</svg>